<?xml version="1.0" encoding="UTF-8"?><!DOCTYPE svg PUBLIC "-//W3C//DTD SVG 1.1//EN" "http://www.w3.org/Graphics/SVG/1.1/DTD/svg11.dtd"><svg xmlns="http://www.w3.org/2000/svg"><symbol id="icon-cancel" viewBox="0 0 256 256">
    <path d="M137.051 128l75.475-75.475c2.5-2.5 2.5-6.551 0-9.051s-6.551-2.5-9.051 0L128 118.949 52.525 43.475c-2.5-2.5-6.551-2.5-9.051 0s-2.5 6.551 0 9.051L118.949 128l-75.475 75.475a6.399 6.399 0 0 0 4.525 10.926 6.38 6.38 0 0 0 4.525-1.875L128 137.051l75.475 75.475c1.25 1.25 2.888 1.875 4.525 1.875s3.275-.625 4.525-1.875c2.5-2.5 2.5-6.551 0-9.051L137.051 128z"/>
</symbol></svg>